<svg width="197" height="59" fill="none" xmlns="http://www.w3.org/2000/svg"><g clip-path="url(#a)"><path d="M24.3 49.7c2.907 0 4.89-2.099 4.89-4.849 0-2.806-1.983-4.931-4.89-4.931-2.848 0-4.832 2.125-4.832 4.931 0 2.75 1.985 4.849 4.832 4.849Zm0-12.393c4.516 0 7.705 3.218 7.705 7.544 0 4.275-3.19 7.462-7.705 7.462-4.455 0-7.676-3.187-7.676-7.462 0-4.326 3.22-7.544 7.677-7.544Zm64.934 2.37c2.593 0 3.946 1.67 4.174 3.854h-8.305c.413-2.259 1.99-3.855 4.13-3.855Zm6.818 6.066c.024-.294.048-.59.048-.892 0-4.33-2.268-7.544-7.009-7.544-4.052 0-6.977 3.214-6.977 7.544 0 .303.019.598.047.892h-.004c.326 3.717 2.728 6.58 7.76 6.58 2.43 0 4.5-.74 5.985-1.943l-1.129-2.044c-1.107.815-2.791 1.581-4.773 1.581-3.141 0-4.662-1.694-4.936-4.174h10.988Zm12.597-8.054v5.843h-7.704V37.69h-2.868v14.248h2.868v-6.2h7.704v6.2h2.863V37.69h-2.863Zm17.965 0h-13.121v2.527h5.131v11.721h2.863V40.216h5.127v-2.527Zm18.252 14.245h-2.871V37.686h2.871v14.248M40.27 44.441v-.129s.262-.08.506-.35c.237-.267 5.49-6.271 5.49-6.271h-3.215L38 43.53h-1.15v-5.84h-2.867v14.245h2.867v-6.2h1.303l5.453 6.2h3.57s-6.115-6.825-6.378-7.124a1.4 1.4 0 0 0-.53-.37Zm92.892 5.354c-.89 0-1.7-.074-1.7-.074v-5.136s.627-.168 1.735-.168c2.399 0 3.452.923 3.452 2.628 0 1.682-.954 2.75-3.487 2.75Zm.512-7.752c-1.338 0-2.212.17-2.212.17v-4.524h-2.871V51.94s2.359.233 4.793.233c4.504 0 5.989-2.723 5.989-5.219 0-2.539-1.326-4.912-5.699-4.912ZM7.804 49.7c-2.896 0-4.424-2.099-4.357-4.849.06-2.806 1.688-4.931 4.579-4.931 1.592 0 3.75 1.446 3.75 4.054v3.938c-.899 1.1-2.285 1.788-3.972 1.788Zm4.09-12.01-.08 1.798h-.181c-.91-1.34-2.741-2.181-4.171-2.181-4.194 0-6.7 3.218-6.803 7.544-.094 4.275 2.435 7.462 6.629 7.462 1.93 0 3.13-.543 4.301-1.917h.187v1.273c0 2.758-1.934 3.85-4.115 3.85-2.006 0-3.566-.746-4.523-1.316L2.2 56.557c.914.463 2.617 1.473 5.461 1.473 4.032 0 6.974-2.373 6.974-6.935V37.691h-2.74m46.643-.002v10.327c-.839 1.038-2.126 1.681-3.754 1.681-2.638 0-3.84-2.094-3.781-4.848v-7.164h-2.776v7.164c-.1 4.28 1.632 7.466 5.83 7.466 1.918 0 3.22-.566 4.301-1.918h.18v1.273c0 2.755-1.932 3.85-4.112 3.85-2.005 0-3.561-.75-4.523-1.316l-.933 2.355c.91.464 2.617 1.474 5.456 1.474 4.027 0 6.978-2.378 6.978-6.936V37.689h-2.867Zm18.88 0s-4.746 6.594-4.885 6.79a1.33 1.33 0 0 0-.178.385h-.104s-.06-.192-.21-.385l-5.242-6.79h-2.708v14.248h2.87v-9.084c0-.633-.13-.99-.13-.99h.13l5.274 7.01h.124l4.885-7.01h.135s-.135.373-.135.982v9.093h2.875v-14.25h-2.701Zm52.634-2.848V20.593l4.829.005v6.633c0 .483-.107 1.037-.107 1.037h.211l5.262-7.67h4.622v14.248l-4.833-.004v-6.696c0-.48.107-.931.107-.931h-.211l-5.258 7.627h-4.622m-10.019-4.057c1.755 0 2.922-1.348 2.922-3.045 0-1.733-1.167-3.09-2.922-3.09-1.713 0-2.924 1.357-2.924 3.09 0 1.697 1.211 3.045 2.924 3.045Zm-.005-10.566c4.596 0 8.022 3.214 8.022 7.52 0 4.268-3.426 7.483-8.022 7.483-4.543 0-7.97-3.215-7.97-7.482 0-4.307 3.427-7.521 7.97-7.521Zm-13.761.375s-4.036 5.188-4.198 5.391c-.202.24-.218.37-.218.37h-.207s-.04-.137-.23-.37c-.286-.353-4.465-5.391-4.465-5.391h-3.808v14.249h4.65v-5.98c0-.646-.103-1.039-.103-1.039h.21l3.746 4.253h.203l3.47-4.253h.203s-.1.386-.1 1.038v5.981h4.656v-14.25h-3.81" fill="#562212"/><path d="M167.899 35.053V20.596h-11.518v14.45a14.123 14.123 0 0 0 1.928 7.124 14.31 14.31 0 0 0 5.273 5.214l12.95 7.395V41.635l-7.195-4.115a2.86 2.86 0 0 1-1.052-1.043 2.821 2.821 0 0 1-.386-1.424Z" fill="#C59368"/><path d="m176.534 49.084 12.954-7.399a14.318 14.318 0 0 0 5.27-5.213 14.124 14.124 0 0 0 1.93-7.122V.657h-20.154v11.396h8.637v17.3a2.842 2.842 0 0 1-1.438 2.47l-7.199 4.113v13.148Z" fill="#ED5338"/><path d="m176.534.656-20.15 19.943h20.15V.656Z" fill="#562212"/></g><defs><clipPath id="a"><path fill="#fff" d="M0 0h197v59H0z"/></clipPath></defs></svg>